<svg xmlns="http://www.w3.org/2000/svg" width="35" height="35" viewBox="0 0 35 35" fill="none">
  <path d="M7.92455 28.1577C6.9034 27.1219 6.9034 25.4426 7.92455 24.4069L9.74872 22.5566L15.2968 28.349L11.8263 29.2499L7.92455 28.1577Z" fill="url(#paint0_linear_3363_47878)"/>
  <path d="M0.478784 20.807C-0.159595 20.1595 -0.159595 19.1095 0.478784 18.462L3.05024 15.8538L8.35746 21.2368L0.478784 20.807Z" fill="url(#paint1_linear_3363_47878)"/>
  <path d="M33.9823 19.3653L20.0488 33.4978C18.9899 34.5683 17.2778 34.5683 16.2192 33.4978L2.28571 19.3653C1.23028 18.2912 1.23028 16.5547 2.28571 15.4809L16.2192 1.34838C17.2782 0.277877 18.9902 0.277877 20.0488 1.34838L33.9823 15.4809C35.0378 16.5547 35.0378 18.2912 33.9823 19.3653Z" fill="url(#paint2_linear_3363_47878)"/>
  <!-- Adding S in the center -->
  <text x="16" y="20" fill="gold" font-size="8" font-weight="bold" text-anchor="middle" dominant-baseline="middle">S</text>
  <!-- New elements for finance and banking theme -->
  <g fill="#e1e1e1">
    <circle cx="5" cy="30" r="2"></circle>
    <circle cx="30" cy="30" r="2"></circle>
    <rect x="14" y="27" width="6" height="6" fill="#4b4dff"></rect>
    <text x="15" y="32" fill="#4343bf" font-size="4">$</text>
  </g>
  <defs>
    <linearGradient id="paint0_linear_3363_47878" x1="7.15866" y1="25.9031" x2="15.2969" y2="25.9031" gradientUnits="userSpaceOnUse">
      <stop stop-color="#B0D1FF"/>
      <stop offset="1" stop-color="#4F93FF"/>
    </linearGradient>
    <linearGradient id="paint1_linear_3363_47878" x1="-0.000112109" y1="18.5454" x2="8.35733" y2="18.5454" gradientUnits="userSpaceOnUse">
      <stop stop-color="#B0D1FF"/>
      <stop offset="1" stop-color="#4F93FF"/>
    </linearGradient>
    <linearGradient id="paint2_linear_3363_47878" x1="18.0062" y1="31.0963" x2="18.3599" y2="-5.68908" gradientUnits="userSpaceOnUse">
      <stop stop-color="#0058D4"/>
      <stop offset="1" stop-color="#00245B"/>
    </linearGradient>
  </defs>
</svg>
